<svg width="25" height="31" viewBox="0 0 25 31" fill="none" xmlns="http://www.w3.org/2000/svg">
<path d="M18.5943 0.514891C18.5292 0.443641 16.1829 0.543016 14.1412 2.71239C12.0994 4.87989 12.4136 7.36614 12.4595 7.42989C12.5055 7.49364 15.3708 7.59302 17.1999 5.07114C19.0291 2.54927 18.6594 0.588016 18.5943 0.514891ZM24.9417 22.5143C24.8497 22.3343 20.4886 20.2005 20.8946 16.098C21.3007 11.9936 24.1028 10.8686 24.1468 10.7468C24.1909 10.6249 23.0034 9.26552 21.745 8.57739C20.8211 8.09224 19.7985 7.81428 18.7514 7.76364C18.5445 7.75802 17.8263 7.58552 16.3495 7.98114C15.3766 8.24177 13.1835 9.08552 12.5802 9.11927C11.9749 9.15302 10.1745 8.14052 8.23815 7.87239C6.99894 7.63802 5.68503 8.11802 4.74461 8.48739C3.8061 8.85489 2.02102 9.90114 0.772227 12.6818C-0.476563 15.4605 0.176562 19.863 0.643901 21.2318C1.11124 22.5986 1.84098 24.8393 3.08211 26.4743C4.18533 28.3193 5.64864 29.5999 6.25963 30.0349C6.87061 30.4699 8.5944 30.7586 9.78957 30.1605C10.7511 29.583 12.4863 29.2511 13.172 29.2755C13.8558 29.2999 15.2042 29.5643 16.5851 30.2861C17.6788 30.6555 18.7131 30.5018 19.7492 30.0893C20.7854 29.6749 22.2851 28.1036 24.0357 24.918C24.7003 23.4368 25.003 22.6361 24.9417 22.5143Z" fill="white"/>
<path d="M18.5943 0.514891C18.5292 0.443641 16.1829 0.543016 14.1412 2.71239C12.0994 4.87989 12.4136 7.36614 12.4595 7.42989C12.5055 7.49364 15.3708 7.59302 17.1999 5.07114C19.0291 2.54927 18.6594 0.588016 18.5943 0.514891ZM24.9417 22.5143C24.8497 22.3343 20.4886 20.2005 20.8946 16.098C21.3007 11.9936 24.1028 10.8686 24.1468 10.7468C24.1909 10.6249 23.0034 9.26552 21.745 8.57739C20.8211 8.09224 19.7985 7.81428 18.7514 7.76364C18.5445 7.75802 17.8263 7.58552 16.3495 7.98114C15.3766 8.24177 13.1835 9.08552 12.5802 9.11927C11.9749 9.15302 10.1745 8.14052 8.23815 7.87239C6.99894 7.63802 5.68503 8.11802 4.74461 8.48739C3.8061 8.85489 2.02102 9.90114 0.772227 12.6818C-0.476563 15.4605 0.176562 19.863 0.643901 21.2318C1.11124 22.5986 1.84098 24.8393 3.08211 26.4743C4.18533 28.3193 5.64864 29.5999 6.25963 30.0349C6.87061 30.4699 8.5944 30.7586 9.78957 30.1605C10.7511 29.583 12.4863 29.2511 13.172 29.2755C13.8558 29.2999 15.2042 29.5643 16.5851 30.2861C17.6788 30.6555 18.7131 30.5018 19.7492 30.0893C20.7854 29.6749 22.2851 28.1036 24.0357 24.918C24.7003 23.4368 25.003 22.6361 24.9417 22.5143Z" fill="white"/>
</svg>
