<svg width="28" height="27" viewBox="0 0 28 27" fill="none" xmlns="http://www.w3.org/2000/svg">
<g clip-path="url(#clip0_1144_163)">
<path d="M20.3087 17.6263C23.6763 15.87 26.2292 14.5318 26.4493 14.4277C27.1532 14.0722 27.8802 13.1311 26.4493 12.4002C25.9873 12.1703 23.5 10.8737 20.3087 9.20154L15.8848 13.4452L20.3087 17.6262V17.6263Z" fill="#FFD900"/>
<path d="M15.8848 13.4452L1.79834 26.9297C2.12898 26.9713 2.50226 26.888 2.94235 26.6582C3.86632 26.1779 13.6613 21.0972 20.3087 17.6273L15.8848 13.4452Z" fill="#F43249"/>
<path d="M15.8852 13.4453L20.3091 9.22258C20.3091 9.22258 3.93354 0.734233 2.94276 0.233157C2.56948 0.0231676 2.15117 -0.0392083 1.77686 0.0231676L15.8852 13.4453Z" fill="#00EE76"/>
<path d="M15.885 13.4452L1.77667 0.0230713C1.20409 0.148809 0.720215 0.62929 0.720215 1.61193V25.3409C0.720215 26.2403 1.09464 26.8881 1.79856 26.9505L15.885 13.4452Z" fill="#00D3FF"/>
</g>
<defs>
<clipPath id="clip0_1144_163">
<rect width="26.5591" height="27" fill="white" transform="translate(0.720215)"/>
</clipPath>
</defs>
</svg>
