<svg width="104" height="34" viewBox="0 0 104 34" fill="none" xmlns="http://www.w3.org/2000/svg">
<g clip-path="url(#clip0_12_369)">
<path d="M95.1439 0.0001105H8.5531C8.23747 0.0001105 7.92562 0.0001105 7.61082 0.0018105C7.3473 0.0035105 7.08589 0.008449 6.81984 0.0126055C6.24186 0.019322 5.66524 0.0695353 5.095 0.162809C4.52555 0.258113 3.97394 0.437789 3.45883 0.695759C2.94434 0.955911 2.47424 1.29395 2.06559 1.69762C1.65478 2.10015 1.31234 2.56542 1.05144 3.07555C0.789819 3.58465 0.608409 4.13021 0.513477 4.69337C0.417642 5.25582 0.366073 5.82475 0.359232 6.39507C0.351244 6.65568 0.3504 6.91716 0.346191 7.1778V26.8249C0.3504 27.0888 0.351244 27.3445 0.359232 27.6085C0.366075 28.1788 0.417645 28.7477 0.513477 29.3102C0.608146 29.8736 0.789567 30.4195 1.05144 30.9288C1.31223 31.4373 1.65471 31.9007 2.06559 32.301C2.4727 32.7064 2.9431 33.0447 3.45883 33.3029C3.97394 33.5615 4.52549 33.7423 5.095 33.839C5.66534 33.9316 6.2419 33.9818 6.81984 33.9893C7.08589 33.9951 7.3473 33.9984 7.61082 33.9984C7.92561 34.0001 8.23748 34.0001 8.5531 34.0001H95.1439C95.4533 34.0001 95.7676 34.0001 96.077 33.9984C96.3392 33.9984 96.6082 33.9951 96.8705 33.9893C97.4473 33.9822 98.0228 33.932 98.592 33.839C99.1633 33.7416 99.7168 33.5609 100.234 33.3029C100.75 33.0445 101.22 32.7063 101.626 32.301C102.036 31.8991 102.379 31.436 102.643 30.9288C102.903 30.4191 103.083 29.8733 103.176 29.3102C103.272 28.7477 103.326 28.1789 103.336 27.6085C103.339 27.3445 103.339 27.0888 103.339 26.8249C103.346 26.5161 103.346 26.209 103.346 25.8952V8.10582C103.346 7.79454 103.346 7.48575 103.339 7.1778C103.339 6.91716 103.339 6.65568 103.336 6.39503C103.326 5.82467 103.272 5.25586 103.176 4.69333C103.083 4.1305 102.903 3.58499 102.643 3.07551C102.112 2.05303 101.27 1.22073 100.234 0.695682C99.7168 0.438343 99.1633 0.258715 98.592 0.162733C98.0229 0.0690479 97.4474 0.0188171 96.8705 0.0124865C96.6082 0.0083385 96.3392 0.0033575 96.077 0.0017C95.7676 0 95.4533 0.0001105 95.1439 0.0001105Z" fill="#A6A6A6"/>
<path d="M7.61505 33.2562C7.35279 33.2562 7.09688 33.2528 6.83669 33.2471C6.29767 33.2401 5.75992 33.1938 5.22784 33.1084C4.7317 33.024 4.25107 32.8671 3.80181 32.6427C3.35667 32.4202 2.95067 32.1284 2.59935 31.7786C2.24295 31.4329 1.94623 31.0319 1.72095 30.5916C1.49319 30.1484 1.33557 29.6733 1.25357 29.183C1.16502 28.656 1.11711 28.1233 1.11026 27.5892C1.1048 27.4099 1.09766 26.8131 1.09766 26.8131V7.17759C1.09766 7.17759 1.10527 6.58989 1.1103 6.41723C1.11686 5.88401 1.16449 5.35206 1.25278 4.82597C1.33493 4.33426 1.49267 3.85784 1.72056 3.41319C1.94501 2.97315 2.24008 2.57188 2.59433 2.22493C2.94819 1.87468 3.35549 1.58142 3.80139 1.35583C4.24961 1.13218 4.72933 0.976325 5.22447 0.893482C5.7583 0.807263 6.29792 0.760649 6.8388 0.754031L7.61547 0.743652H96.0728L96.8587 0.754447C97.3947 0.760737 97.9294 0.806935 98.4583 0.892649C98.9585 0.976531 99.4432 1.13348 99.8965 1.35832C100.79 1.81294 101.517 2.53219 101.975 3.41526C102.199 3.85684 102.355 4.32938 102.436 4.81684C102.525 5.34724 102.575 5.88338 102.585 6.42097C102.588 6.66169 102.588 6.92026 102.588 7.17759C102.595 7.49634 102.595 7.79973 102.595 8.10561V25.895C102.595 26.2038 102.595 26.5051 102.588 26.8089C102.588 27.0853 102.588 27.3385 102.585 27.5991C102.575 28.1271 102.525 28.6537 102.438 29.1746C102.357 29.6685 102.2 30.1473 101.973 30.5941C101.746 31.0297 101.451 31.4272 101.099 31.772C100.747 32.1237 100.34 32.4172 99.894 32.6411C99.4419 32.8672 98.9579 33.0247 98.4583 33.1084C97.9263 33.1942 97.3885 33.2406 96.8494 33.2471C96.5973 33.2528 96.3333 33.2562 96.077 33.2562L95.1439 33.2579L7.61505 33.2562Z" fill="black"/>
<path d="M21.6659 17.2555C21.6751 16.546 21.866 15.8504 22.2206 15.2333C22.5753 14.6163 23.0822 14.0978 23.6943 13.7262C23.3054 13.1778 22.7925 12.7265 22.1961 12.4082C21.5998 12.0898 20.9365 11.9131 20.2589 11.8922C18.8135 11.7424 17.4123 12.7463 16.6757 12.7463C15.9249 12.7463 14.7909 11.9071 13.5697 11.9319C12.7799 11.9571 12.01 12.1839 11.3353 12.5903C10.6606 12.9966 10.104 13.5686 9.7197 14.2506C8.05502 17.0967 9.29672 21.2796 10.8913 23.5802C11.6892 24.7068 12.6216 25.9652 13.8417 25.9205C15.0356 25.8716 15.4815 25.1687 16.9226 25.1687C18.3504 25.1687 18.7687 25.9205 20.0135 25.8922C21.2946 25.8716 22.1018 24.7606 22.8716 23.6234C23.4449 22.8207 23.886 21.9335 24.1786 20.9948C23.4343 20.6839 22.7991 20.1635 22.3523 19.4986C21.9055 18.8336 21.6668 18.0535 21.6659 17.2555Z" fill="white"/>
<path d="M19.3147 10.3791C20.0132 9.55106 20.3574 8.48671 20.274 7.41211C19.2069 7.5228 18.2211 8.02647 17.5131 8.82278C17.167 9.21179 16.9019 9.66436 16.733 10.1546C16.564 10.6449 16.4946 11.1632 16.5287 11.68C17.0625 11.6854 17.5905 11.5711 18.0731 11.3458C18.5557 11.1205 18.9802 10.79 19.3147 10.3791Z" fill="white"/>
<path d="M36.7576 23.0685H32.6834L31.7049 25.9215H29.9792L33.8383 15.3662H35.6312L39.4903 25.9215H37.7352L36.7576 23.0685ZM33.1053 21.752H36.3348L34.7428 17.1218H34.6982L33.1053 21.752Z" fill="white"/>
<path d="M47.8246 22.0742C47.8246 24.4657 46.5284 26.0022 44.5724 26.0022C44.077 26.0278 43.5842 25.915 43.1505 25.6769C42.7169 25.4388 42.3599 25.0849 42.1205 24.6558H42.0835V28.4675H40.4839V18.226H42.0322V19.506H42.0617C42.3121 19.0789 42.6751 18.7268 43.112 18.4872C43.549 18.2477 44.0435 18.1296 44.543 18.1455C46.5208 18.1455 47.8246 19.6894 47.8246 22.0742ZM46.1804 22.0742C46.1804 20.5162 45.3651 19.4919 44.121 19.4919C42.8989 19.4919 42.0768 20.5378 42.0768 22.0742C42.0768 23.6248 42.8989 24.6632 44.121 24.6632C45.3651 24.6632 46.1804 23.6464 46.1804 22.0742Z" fill="white"/>
<path d="M56.4017 22.0742C56.4017 24.4657 55.1056 26.0021 53.1496 26.0021C52.6541 26.0277 52.1613 25.915 51.7277 25.6769C51.2941 25.4388 50.9371 25.0849 50.6977 24.6557H50.6606V28.4675H49.061V18.226H50.6094V19.506H50.6388C50.8892 19.0789 51.2522 18.7268 51.6892 18.4872C52.1261 18.2477 52.6206 18.1296 53.1201 18.1455C55.098 18.1455 56.4017 19.6894 56.4017 22.0742ZM54.7576 22.0742C54.7576 20.5162 53.9422 19.4918 52.6982 19.4918C51.476 19.4918 50.6539 20.5377 50.6539 22.0742C50.6539 23.6248 51.476 24.6632 52.6982 24.6632C53.9422 24.6632 54.7576 23.6464 54.7576 22.0742Z" fill="white"/>
<path d="M62.0706 22.9808C62.1891 24.0275 63.2188 24.7148 64.6259 24.7148C65.9742 24.7148 66.9442 24.0275 66.9442 23.0836C66.9442 22.2644 66.3591 21.7738 64.9739 21.4376L63.5886 21.1081C61.6259 20.6399 60.7147 19.7334 60.7147 18.2626C60.7147 16.4414 62.3219 15.1904 64.604 15.1904C66.8626 15.1904 68.411 16.4414 68.4631 18.2626H66.8483C66.7517 17.2092 65.8699 16.5733 64.5813 16.5733C63.2927 16.5733 62.411 17.2167 62.411 18.153C62.411 18.8992 62.9742 19.3383 64.3518 19.6745L65.5295 19.96C67.7225 20.4722 68.6337 21.3421 68.6337 22.8861C68.6337 24.8608 67.0408 26.0976 64.5073 26.0976C62.1369 26.0976 60.5365 24.8899 60.4331 22.9807L62.0706 22.9808Z" fill="white"/>
<path d="M72.086 16.4048V18.226H73.5679V19.4769H72.086V23.7194C72.086 24.3785 72.3827 24.6856 73.0341 24.6856C73.21 24.6826 73.3857 24.6704 73.5603 24.6491V25.8926C73.2674 25.9466 72.9697 25.9711 72.6718 25.9656C71.0941 25.9656 70.4788 25.3804 70.4788 23.8879V19.4769H69.3457V18.226H70.4788V16.4048H72.086Z" fill="white"/>
<path d="M74.426 22.0742C74.426 19.6529 75.8701 18.1313 78.122 18.1313C80.3815 18.1313 81.8188 19.6528 81.8188 22.0742C81.8188 24.5022 80.389 26.0171 78.122 26.0171C75.8558 26.0171 74.426 24.5022 74.426 22.0742ZM80.189 22.0742C80.189 20.4132 79.4182 19.4329 78.122 19.4329C76.8258 19.4329 76.0559 20.4207 76.0559 22.0742C76.0559 23.7418 76.8258 24.7147 78.122 24.7147C79.4182 24.7147 80.189 23.7418 80.189 22.0742Z" fill="white"/>
<path d="M83.1377 18.2259H84.6633V19.5358H84.7003C84.8036 19.1267 85.0463 18.7651 85.3876 18.5119C85.729 18.2587 86.1482 18.1293 86.5748 18.1454C86.7592 18.1447 86.943 18.1645 87.1229 18.2043V19.6819C86.8901 19.6116 86.6474 19.5794 86.4041 19.5864C86.1718 19.5771 85.9401 19.6176 85.725 19.705C85.51 19.7925 85.3167 19.9248 85.1583 20.093C84.9999 20.2612 84.8803 20.4613 84.8077 20.6795C84.735 20.8976 84.711 21.1288 84.7373 21.357V25.9216H83.1377L83.1377 18.2259Z" fill="white"/>
<path d="M94.4979 23.6613C94.2828 25.0583 92.9051 26.0171 91.1424 26.0171C88.8754 26.0171 87.4683 24.5171 87.4683 22.1107C87.4683 19.6969 88.8829 18.1313 91.0751 18.1313C93.2312 18.1313 94.587 19.5939 94.587 21.9273V22.4685H89.083V22.564C89.0576 22.8472 89.0935 23.1325 89.1883 23.401C89.2832 23.6694 89.4348 23.9149 89.633 24.1211C89.8313 24.3272 90.0717 24.4894 90.3384 24.5967C90.605 24.7041 90.8917 24.7542 91.1794 24.7437C91.5574 24.7787 91.9367 24.6923 92.261 24.4972C92.5852 24.3022 92.8371 24.009 92.979 23.6613L94.4979 23.6613ZM89.0906 21.3645H92.9866C93.001 21.1098 92.9619 20.855 92.8718 20.616C92.7817 20.3769 92.6425 20.1589 92.463 19.9755C92.2835 19.7921 92.0676 19.6473 91.8288 19.5502C91.5899 19.4531 91.3334 19.4058 91.0751 19.4113C90.8147 19.4098 90.5564 19.4592 90.3154 19.5567C90.0744 19.6543 89.8553 19.798 89.6707 19.9796C89.4862 20.1612 89.34 20.377 89.2404 20.6147C89.1408 20.8524 89.0899 21.1073 89.0906 21.3645Z" fill="white"/>
<path d="M32.9049 7.42128C33.2403 7.39752 33.5768 7.44755 33.8902 7.56777C34.2036 7.68798 34.4861 7.87539 34.7173 8.11647C34.9485 8.35756 35.1226 8.6463 35.2271 8.96188C35.3316 9.27746 35.3639 9.61201 35.3216 9.9414C35.3216 11.5617 34.4348 12.4931 32.9049 12.4931H31.0498V7.42128H32.9049ZM31.8475 11.7758H32.8158C33.0555 11.79 33.2953 11.7512 33.5178 11.6623C33.7404 11.5733 33.94 11.4365 34.1023 11.2618C34.2645 11.0871 34.3852 10.8788 34.4557 10.6522C34.5262 10.4256 34.5446 10.1863 34.5096 9.95173C34.542 9.71812 34.5218 9.48032 34.4502 9.25535C34.3787 9.03039 34.2576 8.82384 34.0958 8.6505C33.9339 8.47716 33.7352 8.34132 33.5139 8.25272C33.2926 8.16412 33.0542 8.12495 32.8158 8.13801H31.8475V11.7758Z" fill="white"/>
<path d="M36.2228 10.5777C36.1984 10.3262 36.2275 10.0724 36.3083 9.83265C36.3891 9.59289 36.5197 9.37245 36.6918 9.18546C36.8639 8.99848 37.0737 8.84908 37.3077 8.74684C37.5417 8.64461 37.7947 8.5918 38.0506 8.5918C38.3064 8.5918 38.5595 8.64461 38.7935 8.74684C39.0275 8.84908 39.2373 8.99848 39.4094 9.18546C39.5815 9.37245 39.7121 9.59289 39.7929 9.83265C39.8736 10.0724 39.9028 10.3262 39.8784 10.5777C39.9032 10.8295 39.8744 11.0836 39.7939 11.3238C39.7133 11.5639 39.5828 11.7848 39.4106 11.9721C39.2385 12.1595 39.0286 12.3092 38.7943 12.4117C38.5601 12.5141 38.3068 12.567 38.0506 12.567C37.7944 12.567 37.5411 12.5141 37.3068 12.4117C37.0726 12.3092 36.8627 12.1595 36.6905 11.9721C36.5184 11.7848 36.3878 11.5639 36.3073 11.3238C36.2267 11.0836 36.1979 10.8295 36.2228 10.5777ZM39.0916 10.5777C39.0916 9.74806 38.7142 9.26288 38.0518 9.26288C37.3869 9.26288 37.0129 9.74806 37.0129 10.5777C37.0129 11.414 37.387 11.8955 38.0518 11.8955C38.7142 11.8955 39.0916 11.4107 39.0916 10.5777Z" fill="white"/>
<path d="M44.7377 12.493H43.9442L43.1432 9.67407H43.0827L42.285 12.493H41.499L40.4307 8.66553H41.2065L41.9008 11.5861H41.958L42.7548 8.66553H43.4887L44.2855 11.5861H44.346L45.037 8.66553H45.8019L44.7377 12.493Z" fill="white"/>
<path d="M46.7004 8.66554H47.4368V9.27357H47.4939C47.5909 9.05519 47.7545 8.87212 47.9618 8.74989C48.1691 8.62765 48.4099 8.57234 48.6506 8.59166C48.8392 8.57766 49.0285 8.60574 49.2046 8.67382C49.3807 8.7419 49.5391 8.84824 49.6679 8.98496C49.7967 9.12167 49.8928 9.28526 49.9489 9.46361C50.005 9.64196 50.0198 9.83049 49.9921 10.0152V12.493H49.2272V10.2049C49.2272 9.58984 48.9565 9.28395 48.3908 9.28395C48.2628 9.27806 48.135 9.29958 48.0161 9.34704C47.8973 9.39449 47.7903 9.46676 47.7024 9.55889C47.6145 9.65102 47.5478 9.76082 47.5069 9.88078C47.466 10.0007 47.4518 10.128 47.4654 10.2539V12.493H46.7004L46.7004 8.66554Z" fill="white"/>
<path d="M51.2109 7.17139H51.9759V12.493H51.2109V7.17139Z" fill="white"/>
<path d="M53.0391 10.5778C53.0148 10.3262 53.044 10.0724 53.1247 9.83268C53.2055 9.59291 53.3362 9.37246 53.5083 9.18547C53.6804 8.99848 53.8902 8.84908 54.1242 8.74684C54.3582 8.64461 54.6113 8.5918 54.8672 8.5918C55.1231 8.5918 55.3761 8.64461 55.6101 8.74684C55.8441 8.84908 56.0539 8.99848 56.226 9.18547C56.3982 9.37246 56.5288 9.59291 56.6096 9.83268C56.6904 10.0724 56.7195 10.3262 56.6952 10.5778C56.72 10.8296 56.6912 11.0837 56.6106 11.3239C56.53 11.564 56.3994 11.7849 56.2273 11.9722C56.0551 12.1595 55.8452 12.3093 55.6109 12.4117C55.3767 12.5142 55.1234 12.5671 54.8672 12.5671C54.611 12.5671 54.3576 12.5142 54.1234 12.4117C53.8892 12.3093 53.6792 12.1595 53.5071 11.9722C53.3349 11.7849 53.2043 11.564 53.1237 11.3239C53.0432 11.0837 53.0143 10.8296 53.0391 10.5778ZM55.908 10.5778C55.908 9.74813 55.5306 9.26295 54.8682 9.26295C54.2033 9.26295 53.8293 9.74813 53.8293 10.5778C53.8293 11.4141 54.2034 11.8955 54.8682 11.8955C55.5306 11.8955 55.908 11.4108 55.908 10.5778Z" fill="white"/>
<path d="M57.5005 11.4107C57.5005 10.7218 58.02 10.3246 58.9421 10.2681L59.9919 10.2084V9.878C59.9919 9.47375 59.7213 9.24548 59.1984 9.24548C58.7714 9.24548 58.4756 9.40029 58.3907 9.6709H57.6501C57.7283 9.01347 58.3545 8.5918 59.2337 8.5918C60.2054 8.5918 60.7535 9.0695 60.7535 9.878V12.4932H60.0172V11.9553H59.9566C59.8338 12.1482 59.6613 12.3055 59.4568 12.4111C59.2522 12.5167 59.023 12.5667 58.7924 12.5562C58.6297 12.5729 58.4653 12.5558 58.3097 12.5059C58.1541 12.456 58.0108 12.3745 57.8891 12.2665C57.7674 12.1586 57.6699 12.0267 57.603 11.8793C57.536 11.7319 57.5011 11.5723 57.5005 11.4107ZM59.9919 11.0837V10.7637L59.0455 10.8235C58.5117 10.8587 58.2696 11.038 58.2696 11.3755C58.2696 11.7199 58.5722 11.9204 58.9883 11.9204C59.1102 11.9326 59.2334 11.9204 59.3505 11.8847C59.4675 11.8489 59.5761 11.7902 59.6697 11.7121C59.7634 11.6341 59.8402 11.5382 59.8955 11.4302C59.9509 11.3223 59.9837 11.2044 59.9919 11.0837Z" fill="white"/>
<path d="M61.7588 10.5776C61.7588 9.3682 62.3884 8.60204 63.3676 8.60204C63.6099 8.59102 63.8503 8.64831 64.0607 8.76722C64.2712 8.88613 64.4431 9.06175 64.5562 9.27354H64.6134V7.17139H65.3783V12.493H64.6453V11.8883H64.5848C64.4629 12.0987 64.2851 12.2721 64.0705 12.3898C63.856 12.5075 63.6129 12.565 63.3676 12.5561C62.3817 12.5561 61.7588 11.79 61.7588 10.5776ZM62.549 10.5776C62.549 11.3894 62.9365 11.8779 63.5845 11.8779C64.2292 11.8779 64.6277 11.3824 64.6277 10.5809C64.6277 9.78324 64.2251 9.28063 63.5845 9.28063C62.9406 9.28063 62.549 9.77245 62.549 10.5776Z" fill="white"/>
<path d="M68.5431 10.5777C68.5187 10.3262 68.5478 10.0724 68.6286 9.83265C68.7094 9.59289 68.84 9.37245 69.0121 9.18546C69.1842 8.99848 69.394 8.84908 69.628 8.74684C69.862 8.64461 70.115 8.5918 70.3709 8.5918C70.6268 8.5918 70.8798 8.64461 71.1138 8.74684C71.3478 8.84908 71.5576 8.99848 71.7297 9.18546C71.9018 9.37245 72.0324 9.59289 72.1132 9.83265C72.1939 10.0724 72.2231 10.3262 72.1987 10.5777C72.2235 10.8295 72.1947 11.0836 72.1142 11.3238C72.0336 11.5639 71.9031 11.7848 71.7309 11.9721C71.5588 12.1595 71.3489 12.3092 71.1146 12.4117C70.8804 12.5141 70.6271 12.567 70.3709 12.567C70.1147 12.567 69.8614 12.5141 69.6271 12.4117C69.3929 12.3092 69.183 12.1595 69.0108 11.9721C68.8387 11.7848 68.7081 11.5639 68.6276 11.3238C68.547 11.0836 68.5182 10.8295 68.5431 10.5777ZM71.4119 10.5777C71.4119 9.74806 71.0345 9.26288 70.3721 9.26288C69.7073 9.26288 69.3332 9.74806 69.3332 10.5777C69.3332 11.414 69.7073 11.8955 70.3721 11.8955C71.0345 11.8955 71.4119 11.4107 71.4119 10.5777Z" fill="white"/>
<path d="M73.2249 8.66554H73.9612V9.27357H74.0184C74.1153 9.05519 74.2789 8.87212 74.4862 8.74989C74.6935 8.62765 74.9343 8.57234 75.175 8.59166C75.3636 8.57766 75.5529 8.60574 75.729 8.67382C75.9051 8.7419 76.0635 8.84824 76.1923 8.98496C76.3212 9.12167 76.4172 9.28526 76.4733 9.46361C76.5294 9.64196 76.5442 9.83049 76.5165 10.0152V12.493H75.7516V10.2049C75.7516 9.58984 75.481 9.28395 74.9152 9.28395C74.7872 9.27806 74.6594 9.29958 74.5405 9.34704C74.4217 9.39449 74.3147 9.46676 74.2268 9.55889C74.1389 9.65102 74.0722 9.76082 74.0313 9.88078C73.9904 10.0007 73.9762 10.128 73.9898 10.2539V12.493H73.2249V8.66554Z" fill="white"/>
<path d="M80.8388 7.7124V8.68276H81.6786V9.31902H80.8388V11.2871C80.8388 11.6881 81.0061 11.8636 81.3869 11.8636C81.4844 11.8633 81.5817 11.8575 81.6786 11.8462V12.4754C81.5412 12.4997 81.402 12.5126 81.2625 12.514C80.4118 12.514 80.0731 12.2185 80.0731 11.4805V9.31899H79.4578V8.68273H80.0731V7.7124H80.8388Z" fill="white"/>
<path d="M82.7234 7.17139H83.4816V9.28062H83.5421C83.6438 9.0602 83.8118 8.87609 84.0233 8.7534C84.2348 8.6307 84.4794 8.57538 84.7239 8.59497C84.9115 8.58489 85.0991 8.61582 85.2732 8.68556C85.4473 8.7553 85.6037 8.86212 85.7311 8.9984C85.8586 9.13469 85.9541 9.29709 86.0107 9.474C86.0674 9.65092 86.0837 9.83799 86.0587 10.0219V12.493H85.293V10.2082C85.293 9.59687 85.0047 9.28725 84.4642 9.28725C84.3328 9.2766 84.2005 9.29445 84.0768 9.33955C83.953 9.38464 83.8407 9.45589 83.7478 9.54832C83.6548 9.64075 83.5835 9.75212 83.5386 9.87463C83.4938 9.99715 83.4767 10.1279 83.4883 10.2576V12.493H82.7234L82.7234 7.17139Z" fill="white"/>
<path d="M90.5189 11.4598C90.4149 11.8096 90.1898 12.1122 89.8828 12.3146C89.5757 12.517 89.2064 12.6064 88.8394 12.5671C88.5841 12.5738 88.3303 12.5255 88.0957 12.4256C87.8612 12.3257 87.6515 12.1766 87.4811 11.9886C87.3108 11.8006 87.1839 11.5783 87.1093 11.337C87.0346 11.0958 87.0141 10.8414 87.049 10.5915C87.015 10.3409 87.0359 10.0859 87.1104 9.84395C87.1848 9.60198 87.311 9.37863 87.4805 9.18902C87.6499 8.9994 87.8587 8.84796 88.0925 8.74493C88.3264 8.64191 88.58 8.5897 88.836 8.59186C89.9145 8.59186 90.5651 9.31946 90.5651 10.5214V10.7849H87.8282V10.8273C87.8162 10.9677 87.8341 11.1091 87.8807 11.2423C87.9273 11.3756 88.0015 11.4977 88.0987 11.601C88.1959 11.7042 88.3139 11.7863 88.445 11.8418C88.5762 11.8974 88.7177 11.9253 88.8604 11.9238C89.0434 11.9455 89.2288 11.9129 89.393 11.8303C89.5572 11.7477 89.6928 11.6187 89.7825 11.4598L90.5189 11.4598ZM87.8282 10.2263H89.7859C89.7955 10.0978 89.7778 9.9688 89.734 9.84748C89.6901 9.72617 89.621 9.61527 89.5312 9.52189C89.4413 9.42851 89.3327 9.35472 89.2123 9.30528C89.0918 9.25583 88.9622 9.23181 88.8318 9.23476C88.6995 9.23312 88.5682 9.25765 88.4457 9.3069C88.3231 9.35615 88.2118 9.42913 88.1183 9.52154C88.0248 9.61395 87.9509 9.72391 87.9011 9.84494C87.8513 9.96598 87.8265 10.0956 87.8282 10.2263Z" fill="white"/>
</g>
<defs>
<clipPath id="clip0_12_369">
<rect width="103" height="34" fill="white" transform="translate(0.346191)"/>
</clipPath>
</defs>
</svg>
