<svg xmlns="http://www.w3.org/2000/svg" xmlns:xlink="http://www.w3.org/1999/xlink" width="100" zoomAndPan="magnify" viewBox="0 0 75 74.999997" height="100" preserveAspectRatio="xMidYMid meet" version="1.0"><defs><clipPath id="6e070a474a"><path d="M 0 0 L 74.847656 0 L 74.847656 74.847656 L 0 74.847656 Z M 0 0 " clip-rule="nonzero"/></clipPath><clipPath id="b17a06c071"><path d="M 37.425781 0 C 16.753906 0 0 16.753906 0 37.425781 C 0 58.09375 16.753906 74.847656 37.425781 74.847656 C 58.09375 74.847656 74.847656 58.09375 74.847656 37.425781 C 74.847656 16.753906 58.09375 0 37.425781 0 Z M 37.425781 0 " clip-rule="nonzero"/></clipPath><clipPath id="0df90e73a6"><path d="M 16.265625 16.574219 L 58.265625 16.574219 L 58.265625 58.574219 L 16.265625 58.574219 Z M 16.265625 16.574219 " clip-rule="nonzero"/></clipPath></defs><rect x="-7.5" width="90" fill="#ffffff" y="-7.5" height="89.999996" fill-opacity="1"/><g clip-path="url(#6e070a474a)"><g clip-path="url(#b17a06c071)"><path fill="#00c2e8" d="M 0 0 L 74.847656 0 L 74.847656 74.847656 L 0 74.847656 Z M 0 0 " fill-opacity="1" fill-rule="nonzero"/></g></g><g clip-path="url(#0df90e73a6)"><path fill="#ffffff" d="M 58.070312 55.253906 L 56.554688 55.253906 L 56.554688 38.195312 C 57.191406 38.011719 57.691406 37.636719 58.050781 37.082031 C 58.273438 36.738281 58.398438 36.363281 58.425781 35.957031 C 58.457031 35.546875 58.382812 35.160156 58.207031 34.789062 L 53.734375 25.195312 C 53.613281 24.9375 53.4375 24.734375 53.199219 24.582031 C 52.960938 24.429688 52.703125 24.355469 52.421875 24.355469 L 51.335938 24.355469 L 51.335938 23.269531 C 51.335938 23.078125 51.300781 22.894531 51.226562 22.71875 C 51.152344 22.542969 51.050781 22.386719 50.914062 22.25 C 50.777344 22.113281 50.621094 22.007812 50.445312 21.9375 C 50.269531 21.863281 50.082031 21.824219 49.890625 21.824219 L 44.519531 21.824219 C 44.304688 21.070312 43.976562 20.371094 43.535156 19.722656 C 43.09375 19.074219 42.558594 18.511719 41.933594 18.039062 C 41.308594 17.566406 40.621094 17.203125 39.878906 16.953125 C 39.132812 16.703125 38.371094 16.578125 37.585938 16.578125 C 36.800781 16.578125 36.035156 16.703125 35.292969 16.953125 C 34.546875 17.203125 33.863281 17.566406 33.238281 18.039062 C 32.613281 18.511719 32.078125 19.074219 31.636719 19.722656 C 31.191406 20.371094 30.867188 21.070312 30.652344 21.824219 L 25.300781 21.824219 C 25.109375 21.824219 24.925781 21.863281 24.746094 21.9375 C 24.570312 22.007812 24.414062 22.113281 24.277344 22.25 C 24.144531 22.386719 24.039062 22.542969 23.964844 22.71875 C 23.890625 22.894531 23.855469 23.078125 23.855469 23.269531 L 23.855469 24.355469 L 22.773438 24.355469 C 22.492188 24.355469 22.230469 24.429688 21.992188 24.582031 C 21.757812 24.734375 21.578125 24.9375 21.460938 25.195312 L 16.964844 34.792969 C 16.308594 36.203125 17.144531 37.75 18.617188 38.195312 L 18.617188 55.253906 L 17.097656 55.253906 C 17 55.253906 16.914062 55.289062 16.84375 55.359375 C 16.773438 55.429688 16.738281 55.515625 16.738281 55.617188 L 16.738281 57.90625 C 16.738281 58.007812 16.773438 58.089844 16.84375 58.160156 C 16.914062 58.234375 17 58.269531 17.097656 58.269531 L 58.070312 58.269531 C 58.171875 58.269531 58.257812 58.234375 58.328125 58.160156 C 58.398438 58.089844 58.433594 58.007812 58.433594 57.90625 L 58.433594 55.617188 C 58.433594 55.515625 58.398438 55.429688 58.328125 55.359375 C 58.257812 55.289062 58.171875 55.253906 58.070312 55.253906 Z M 53.078125 25.496094 L 57.550781 35.097656 C 57.675781 35.355469 57.730469 35.625 57.710938 35.910156 C 57.695312 36.195312 57.609375 36.457031 57.457031 36.699219 C 57.261719 36.988281 57.011719 37.214844 56.699219 37.378906 C 56.390625 37.539062 56.058594 37.617188 55.710938 37.609375 C 55.285156 37.625 54.894531 37.515625 54.539062 37.28125 C 54.183594 37.046875 53.925781 36.734375 53.773438 36.335938 L 49.796875 25.074219 L 52.402344 25.074219 C 52.722656 25.066406 52.945312 25.207031 53.078125 25.496094 Z M 52.625 35.253906 C 52.816406 35.796875 52.742188 36.300781 52.402344 36.765625 C 51.980469 37.339844 51.414062 37.617188 50.703125 37.605469 L 50.417969 37.605469 C 49.964844 37.617188 49.554688 37.492188 49.1875 37.222656 C 48.820312 36.953125 48.574219 36.597656 48.449219 36.160156 C 47.476562 32.019531 46.257812 26.734375 45.851562 25.078125 L 49.050781 25.078125 C 49.371094 25.992188 52.121094 33.808594 52.625 35.253906 Z M 47.535156 35.421875 C 47.664062 35.960938 47.554688 36.441406 47.199219 36.867188 C 46.777344 37.382812 46.230469 37.636719 45.5625 37.621094 L 45.171875 37.621094 C 44.933594 37.632812 44.703125 37.597656 44.476562 37.523438 C 44.25 37.445312 44.042969 37.332031 43.859375 37.179688 C 43.675781 37.027344 43.523438 36.847656 43.40625 36.640625 C 43.289062 36.433594 43.210938 36.210938 43.175781 35.976562 L 42.375 29.164062 C 43.613281 28.066406 44.382812 26.703125 44.679688 25.078125 L 45.113281 25.078125 Z M 31.996094 35.976562 C 31.957031 36.210938 31.878906 36.429688 31.761719 36.636719 C 31.640625 36.839844 31.488281 37.019531 31.304688 37.167969 C 31.121094 37.320312 30.917969 37.429688 30.691406 37.507812 C 30.464844 37.582031 30.234375 37.613281 30 37.605469 L 29.609375 37.605469 C 28.941406 37.617188 28.394531 37.367188 27.972656 36.847656 C 27.625 36.429688 27.515625 35.957031 27.636719 35.425781 L 30.058594 25.078125 L 30.492188 25.078125 C 30.789062 26.703125 31.558594 28.066406 32.792969 29.164062 C 32.695312 29.996094 33.066406 26.859375 31.996094 35.976562 Z M 26.722656 36.15625 C 26.597656 36.59375 26.351562 36.949219 25.984375 37.21875 C 25.617188 37.488281 25.207031 37.613281 24.75 37.601562 L 24.464844 37.601562 C 23.757812 37.613281 23.195312 37.335938 22.773438 36.765625 C 22.433594 36.300781 22.355469 35.796875 22.542969 35.253906 L 26.121094 25.078125 L 29.320312 25.078125 C 29.085938 26.070312 30.222656 21.21875 26.722656 36.167969 Z M 32.765625 35.613281 L 33.460938 29.703125 C 34.589844 30.492188 35.847656 30.917969 37.222656 30.980469 L 37.222656 35.792969 C 37.210938 36.046875 37.148438 36.289062 37.035156 36.515625 C 36.925781 36.742188 36.777344 36.941406 36.589844 37.113281 C 36.402344 37.28125 36.1875 37.40625 35.949219 37.492188 C 35.710938 37.578125 35.464844 37.613281 35.210938 37.601562 L 34.769531 37.601562 C 34.144531 37.609375 33.621094 37.382812 33.199219 36.921875 C 32.855469 36.550781 32.710938 36.113281 32.765625 35.613281 Z M 37.945312 30.980469 C 39.324219 30.917969 40.582031 30.488281 41.710938 29.695312 L 42.40625 35.613281 C 42.460938 36.121094 42.316406 36.5625 41.972656 36.9375 C 41.550781 37.398438 41.027344 37.625 40.398438 37.617188 L 39.960938 37.617188 C 39.707031 37.628906 39.460938 37.589844 39.222656 37.507812 C 38.984375 37.421875 38.769531 37.296875 38.582031 37.125 C 38.394531 36.957031 38.246094 36.757812 38.132812 36.53125 C 38.023438 36.300781 37.960938 36.0625 37.945312 35.808594 Z M 49.871094 22.539062 C 50.070312 22.539062 50.238281 22.609375 50.382812 22.75 C 50.523438 22.890625 50.59375 23.0625 50.59375 23.261719 L 50.59375 24.34375 L 44.773438 24.34375 C 44.773438 24.15625 44.800781 23.984375 44.800781 23.777344 C 44.796875 23.355469 44.757812 22.941406 44.683594 22.527344 Z M 37.585938 17.296875 C 37.996094 17.320312 38.398438 17.382812 38.796875 17.484375 C 39.191406 17.589844 39.578125 17.726562 39.949219 17.902344 C 40.316406 18.074219 40.667969 18.28125 41 18.523438 C 41.332031 18.765625 41.640625 19.035156 41.921875 19.332031 C 42.199219 19.632812 42.449219 19.953125 42.671875 20.300781 C 42.890625 20.648438 43.074219 21.011719 43.226562 21.390625 C 43.378906 21.773438 43.492188 22.164062 43.570312 22.566406 C 43.644531 22.96875 43.683594 23.375 43.683594 23.785156 C 43.683594 24.195312 43.644531 24.601562 43.570312 25.003906 C 43.492188 25.40625 43.378906 25.800781 43.226562 26.179688 C 43.074219 26.5625 42.890625 26.925781 42.671875 27.273438 C 42.449219 27.617188 42.199219 27.941406 41.921875 28.238281 C 41.640625 28.539062 41.332031 28.808594 41 29.046875 C 40.667969 29.289062 40.316406 29.496094 39.949219 29.671875 C 39.578125 29.847656 39.191406 29.984375 38.796875 30.085938 C 38.398438 30.1875 37.996094 30.25 37.585938 30.277344 C 37.175781 30.25 36.773438 30.1875 36.375 30.085938 C 35.980469 29.984375 35.59375 29.847656 35.222656 29.671875 C 34.851562 29.496094 34.5 29.289062 34.167969 29.046875 C 33.839844 28.808594 33.53125 28.539062 33.25 28.238281 C 32.96875 27.941406 32.71875 27.617188 32.5 27.273438 C 32.28125 26.925781 32.09375 26.5625 31.945312 26.179688 C 31.792969 25.800781 31.679688 25.40625 31.601562 25.003906 C 31.527344 24.601562 31.488281 24.195312 31.488281 23.785156 C 31.488281 23.375 31.527344 22.96875 31.601562 22.566406 C 31.679688 22.164062 31.792969 21.773438 31.945312 21.390625 C 32.09375 21.011719 32.28125 20.648438 32.5 20.300781 C 32.71875 19.953125 32.96875 19.632812 33.25 19.332031 C 33.53125 19.035156 33.839844 18.765625 34.167969 18.523438 C 34.5 18.28125 34.851562 18.074219 35.222656 17.902344 C 35.59375 17.726562 35.980469 17.589844 36.375 17.484375 C 36.773438 17.382812 37.175781 17.320312 37.585938 17.296875 Z M 24.578125 23.261719 C 24.578125 23.0625 24.648438 22.890625 24.789062 22.75 C 24.929688 22.609375 25.101562 22.539062 25.300781 22.539062 L 30.503906 22.539062 C 30.417969 22.949219 30.371094 23.367188 30.359375 23.789062 C 30.359375 23.980469 30.359375 24.167969 30.386719 24.355469 L 24.578125 24.355469 Z M 17.621094 35.097656 L 22.09375 25.496094 C 22.222656 25.21875 22.441406 25.078125 22.75 25.078125 L 25.355469 25.078125 L 21.398438 36.335938 C 21.246094 36.730469 20.992188 37.042969 20.636719 37.273438 C 20.285156 37.503906 19.898438 37.613281 19.476562 37.601562 C 18.039062 37.605469 17.066406 36.289062 17.621094 35.097656 Z M 19.339844 38.320312 L 19.476562 38.320312 C 20 38.328125 20.488281 38.199219 20.9375 37.925781 C 21.390625 37.65625 21.734375 37.285156 21.96875 36.816406 C 22.027344 36.941406 22.097656 37.0625 22.175781 37.179688 C 22.441406 37.542969 22.777344 37.824219 23.183594 38.027344 C 23.585938 38.226562 24.015625 38.324219 24.464844 38.320312 L 24.75 38.320312 C 25.25 38.324219 25.714844 38.203125 26.148438 37.957031 C 26.582031 37.707031 26.925781 37.371094 27.175781 36.941406 C 27.242188 37.066406 27.316406 37.1875 27.402344 37.300781 C 27.675781 37.632812 28.003906 37.886719 28.390625 38.066406 C 28.773438 38.246094 29.179688 38.332031 29.609375 38.328125 L 30 38.328125 C 30.480469 38.335938 30.9375 38.222656 31.363281 37.992188 C 31.789062 37.761719 32.128906 37.441406 32.386719 37.03125 C 32.46875 37.160156 32.558594 37.277344 32.660156 37.390625 C 33.226562 38.011719 33.933594 38.320312 34.773438 38.3125 L 35.214844 38.3125 C 35.691406 38.320312 36.140625 38.214844 36.5625 37.988281 C 36.984375 37.765625 37.324219 37.457031 37.585938 37.058594 C 37.84375 37.460938 38.183594 37.777344 38.605469 38.003906 C 39.03125 38.234375 39.480469 38.34375 39.960938 38.339844 L 40.398438 38.339844 C 41.242188 38.347656 41.945312 38.039062 42.515625 37.421875 C 42.617188 37.308594 42.707031 37.1875 42.789062 37.058594 C 43.050781 37.464844 43.390625 37.777344 43.816406 38.003906 C 44.238281 38.230469 44.691406 38.335938 45.171875 38.328125 L 45.558594 38.328125 C 45.984375 38.332031 46.390625 38.246094 46.777344 38.066406 C 47.164062 37.886719 47.492188 37.632812 47.765625 37.300781 C 47.851562 37.1875 47.925781 37.066406 47.992188 36.941406 C 48.242188 37.371094 48.585938 37.707031 49.019531 37.957031 C 49.453125 38.203125 49.917969 38.324219 50.414062 38.320312 L 50.703125 38.320312 C 51.152344 38.324219 51.582031 38.226562 51.984375 38.027344 C 52.390625 37.824219 52.722656 37.542969 52.992188 37.179688 C 53.070312 37.0625 53.140625 36.941406 53.199219 36.816406 C 53.433594 37.285156 53.777344 37.65625 54.226562 37.925781 C 54.679688 38.199219 55.164062 38.328125 55.691406 38.320312 L 55.828125 38.320312 L 55.828125 55.253906 L 30.175781 55.253906 L 30.175781 42.117188 C 30.175781 42.015625 30.140625 41.933594 30.070312 41.863281 C 30 41.792969 29.914062 41.757812 29.8125 41.757812 L 22.867188 41.757812 C 22.765625 41.757812 22.679688 41.792969 22.609375 41.863281 C 22.539062 41.933594 22.503906 42.015625 22.503906 42.117188 L 22.503906 55.269531 L 19.339844 55.269531 Z M 29.457031 55.253906 L 23.226562 55.253906 L 23.226562 42.480469 L 29.441406 42.480469 Z M 57.726562 57.546875 L 17.460938 57.546875 L 17.460938 55.976562 L 57.710938 55.976562 Z M 57.726562 57.546875 " fill-opacity="1" fill-rule="nonzero"/></g><path fill="#ffffff" d="M 35.246094 23.476562 L 35.246094 27.304688 C 35.246094 27.402344 35.28125 27.488281 35.351562 27.558594 C 35.421875 27.628906 35.507812 27.664062 35.605469 27.664062 C 35.707031 27.664062 35.789062 27.628906 35.859375 27.558594 C 35.933594 27.488281 35.96875 27.402344 35.96875 27.304688 L 35.96875 23.476562 C 36.375 23.390625 36.714844 23.1875 36.980469 22.863281 C 37.242188 22.539062 37.375 22.164062 37.375 21.746094 L 37.375 20.269531 C 37.375 20.167969 37.339844 20.082031 37.269531 20.011719 C 37.199219 19.941406 37.113281 19.90625 37.015625 19.90625 C 36.914062 19.90625 36.828125 19.941406 36.757812 20.011719 C 36.6875 20.082031 36.652344 20.167969 36.652344 20.269531 L 36.652344 21.746094 C 36.652344 21.964844 36.589844 22.164062 36.464844 22.34375 C 36.335938 22.519531 36.171875 22.648438 35.96875 22.722656 L 35.96875 20.269531 C 35.96875 20.167969 35.933594 20.082031 35.859375 20.011719 C 35.789062 19.941406 35.707031 19.90625 35.605469 19.90625 C 35.507812 19.90625 35.421875 19.941406 35.351562 20.011719 C 35.28125 20.082031 35.246094 20.167969 35.246094 20.269531 L 35.246094 22.722656 C 35.039062 22.648438 34.875 22.519531 34.75 22.339844 C 34.625 22.164062 34.5625 21.964844 34.5625 21.746094 L 34.5625 20.269531 C 34.5625 20.167969 34.527344 20.082031 34.457031 20.011719 C 34.386719 19.941406 34.300781 19.90625 34.199219 19.90625 C 34.101562 19.90625 34.015625 19.941406 33.945312 20.011719 C 33.875 20.082031 33.839844 20.167969 33.839844 20.269531 L 33.839844 21.746094 C 33.839844 22.164062 33.96875 22.535156 34.234375 22.863281 C 34.496094 23.1875 34.835938 23.390625 35.246094 23.476562 Z M 35.246094 23.476562 " fill-opacity="1" fill-rule="nonzero"/><path fill="#ffffff" d="M 39.457031 23.457031 L 39.457031 27.304688 C 39.457031 27.402344 39.492188 27.488281 39.5625 27.558594 C 39.632812 27.628906 39.71875 27.664062 39.820312 27.664062 C 39.917969 27.664062 40.003906 27.628906 40.074219 27.558594 C 40.144531 27.488281 40.179688 27.402344 40.179688 27.304688 L 40.179688 23.457031 C 40.542969 23.324219 40.828125 23.09375 41.042969 22.773438 C 41.253906 22.449219 41.351562 22.097656 41.332031 21.710938 C 41.332031 20.71875 40.652344 19.902344 39.820312 19.902344 C 38.984375 19.902344 38.308594 20.71875 38.308594 21.710938 C 38.289062 22.09375 38.382812 22.449219 38.597656 22.773438 C 38.808594 23.09375 39.09375 23.320312 39.457031 23.457031 Z M 39.820312 20.628906 C 40.25 20.628906 40.609375 21.125 40.609375 21.714844 C 40.609375 22.304688 40.25 22.796875 39.820312 22.796875 C 39.386719 22.796875 39.03125 22.296875 39.03125 21.710938 C 39.03125 21.125 39.390625 20.628906 39.820312 20.628906 Z M 39.820312 20.628906 " fill-opacity="1" fill-rule="nonzero"/><path fill="#ffffff" d="M 33.707031 52.351562 L 52.304688 52.351562 C 52.40625 52.351562 52.492188 52.316406 52.5625 52.246094 C 52.632812 52.175781 52.667969 52.089844 52.667969 51.992188 L 52.667969 42.117188 C 52.667969 42.015625 52.632812 41.933594 52.5625 41.863281 C 52.492188 41.792969 52.40625 41.757812 52.304688 41.757812 L 33.707031 41.757812 C 33.609375 41.757812 33.523438 41.792969 33.453125 41.863281 C 33.382812 41.933594 33.347656 42.015625 33.347656 42.117188 L 33.347656 52.007812 C 33.351562 52.101562 33.386719 52.183594 33.457031 52.253906 C 33.527344 52.320312 33.613281 52.351562 33.707031 52.351562 Z M 34.070312 42.464844 L 51.945312 42.464844 L 51.945312 51.628906 L 34.070312 51.628906 Z M 34.070312 42.464844 " fill-opacity="1" fill-rule="nonzero"/><path fill="#ffffff" d="M 36.746094 47.09375 C 36.847656 47.089844 36.929688 47.054688 37 46.984375 L 38.605469 45.367188 C 38.675781 45.296875 38.710938 45.214844 38.710938 45.113281 C 38.710938 45.011719 38.675781 44.925781 38.605469 44.855469 C 38.535156 44.785156 38.449219 44.75 38.351562 44.75 C 38.25 44.75 38.164062 44.785156 38.09375 44.855469 L 36.5 46.476562 C 36.386719 46.589844 36.359375 46.71875 36.421875 46.871094 C 36.484375 47.019531 36.597656 47.09375 36.757812 47.09375 Z M 36.746094 47.09375 " fill-opacity="1" fill-rule="nonzero"/><path fill="#ffffff" d="M 40.328125 44.960938 L 36.582031 48.710938 C 36.511719 48.78125 36.476562 48.867188 36.476562 48.964844 C 36.476562 49.066406 36.511719 49.148438 36.582031 49.21875 C 36.652344 49.292969 36.738281 49.324219 36.835938 49.324219 C 36.9375 49.324219 37.019531 49.289062 37.089844 49.21875 L 40.835938 45.472656 C 40.910156 45.402344 40.945312 45.316406 40.945312 45.21875 C 40.945312 45.117188 40.910156 45.03125 40.835938 44.960938 C 40.765625 44.890625 40.679688 44.855469 40.582031 44.855469 C 40.480469 44.855469 40.394531 44.890625 40.324219 44.960938 Z M 40.328125 44.960938 " fill-opacity="1" fill-rule="nonzero"/></svg>